<?xml version="1.0" encoding="UTF-8"?>
<svg width="23px" height="20px" viewBox="0 0 23 20" version="1.1" xmlns="http://www.w3.org/2000/svg" xmlns:xlink="http://www.w3.org/1999/xlink">
    <!-- Generator: Sketch 53.2 (72643) - https://sketchapp.com -->
    <title>Group 15</title>
    <desc>Created with Sketch.</desc>
    <defs>
        <polygon id="path-1" points="0.0530971429 0.0628392857 8.81059357 0.0628392857 8.81059357 3.26225429 0.0530971429 3.26225429"></polygon>
        <polygon id="path-3" points="0.0628267616 0.0375557143 22.2764857 0.0375557143 22.2764857 12.0375834 0.0628267616 12.0375834"></polygon>
    </defs>
    <g id="Page-1" stroke="none" stroke-width="1" fill="none" fill-rule="evenodd">
        <g id="globeLogo" transform="translate(-1.000000, -3.000000)">
            <g id="Group-15" transform="translate(1.000000, 3.000000)">
                <path d="M14.991745,4.06909429 C11.1949379,3.30615143 6.11243071,3.75259786 3.10140214,6.84765857 C1.82350571,8.16112286 0.844445,9.58244071 0.574934286,11.5897657 C0.481373571,12.28683 1.64285714e-05,11.5132907 1.64285714e-05,10.2074657 C1.64285714e-05,9.68364071 0.442191429,8.43482286 0.723202143,7.77677643 C1.80880214,5.23453714 6.06215929,1.92491929 14.991745,4.06909429" id="Fill-1" fill="#8E8E8D"></path>
                <path d="M14.5012946,19.3154986 C15.5120625,19.1388914 15.7091232,18.2407414 15.2655518,17.9647414 C15.0517339,17.8315879 14.8218982,17.870195 14.6179375,17.8911414 C6.33760893,18.7427164 1.7500125,15.4750736 0.7092625,12.3137236 C0.595576786,11.9683129 0.187491071,10.6394879 0.0197553571,9.93626286 C-0.185273214,15.8853771 6.28175179,20.7517664 14.5012946,19.3154986" id="Fill-3" fill="#A4A4A4"></path>
                <path d="M13.1736114,2.1711425 C10.4141043,1.59721036 1.38052571,2.89145321 0.415018571,7.41423893 C0.279565,7.86848893 0.205472143,8.3282425 0.192657857,8.78799607 C0.214672143,8.46065679 0.231757857,8.2063425 0.248925714,7.99038893 C0.296075714,7.5640675 0.357354286,7.08229964 0.434568571,6.65992107 C0.45494,6.55642107 0.477857857,6.44421393 0.503568571,6.31968536 L0.503897143,6.3186175 L0.608382857,5.89303536 L0.611011429,5.88293179 L0.611668571,5.8804675 C0.624893571,5.83085321 0.638857857,5.7815675 0.653643571,5.73219964 C0.822365,5.16557821 1.11816143,4.62622821 1.45248286,4.06888893 C1.93055429,3.2716925 5.41037214,0.500356786 13.1736114,2.1711425" id="Fill-5" fill="#002D46"></path>
                <path d="M0.496578214,6.20351893 C0.401128214,6.73350464 0.340671071,7.06987964 0.298696071,7.36789393 C0.277585357,7.52905821 0.259349643,7.68899036 0.2443175,7.84251536 C0.223781786,8.07555464 0.1643925,8.3365225 0.192731786,8.69433679 C0.7951675,16.2822832 13.2255175,17.9078904 20.3759711,15.0388868 C21.4609961,14.6035296 21.2993389,13.1881261 20.6727532,13.0772332 C20.4923675,13.0452796 20.3264389,13.1237261 20.1886032,13.1745725 C10.7315782,16.6683546 0.0980210714,13.8642439 0.4334925,7.34415464 C0.4605175,6.8196725 0.4656925,6.29280821 0.598928214,5.77251536 L0.496578214,6.20351893 Z" id="Fill-7" fill="#004471"></path>
                <g id="Group-11" transform="translate(1.560714, 0.019304)">
                    <mask id="mask-2" fill="white">
                        <use xlink:href="#path-1"></use>
                    </mask>
                    <g id="Clip-10"></g>
                    <path d="M0.0530971429,3.26225429 C0.294925714,2.88579357 0.643457857,2.40139714 0.907218571,2.03972214 C1.09310786,1.81037929 1.25287571,1.61849357 1.43293286,1.43055071 C3.52847929,-0.756913571 7.11590429,0.204404286 8.81059357,0.750654286 C6.67110071,0.479500714 2.72372571,-0.213538571 0.0530971429,3.26225429" id="Fill-9" fill="#004471" mask="url(#mask-2)"></path>
                </g>
                <g id="Group-14" transform="translate(0.657143, 1.415732)">
                    <mask id="mask-4" fill="white">
                        <use xlink:href="#path-3"></use>
                    </mask>
                    <g id="Clip-13"></g>
                    <path d="M1.65471857,0.839516429 C1.428415,1.15995571 1.13984714,1.57707714 0.913050714,1.931195 C0.822447143,2.08291286 0.729872143,2.24333786 0.641075714,2.40343429 C-0.691445714,5.00621286 0.280550714,7.96220571 3.54137571,9.97700571 C8.12568643,12.8097843 15.49694,12.7093236 20.0056793,9.75267357 C20.8715471,9.18482 21.56894,8.552895 22.0980221,7.882445 C22.6147829,7.03136286 21.885765,5.976895 21.4774329,5.99504857 C21.3739329,5.99973071 21.2416829,6.07382357 21.1667686,6.14528786 C20.6839329,6.75708786 20.0478186,7.33356643 19.2576864,7.85164143 C15.1442186,10.5491307 8.41893643,10.64072 4.23655071,8.05625929 C0.786386429,5.92424143 0.144850714,2.63737714 2.33469714,0.0375557143 L2.312765,0.0613771429 C2.07767214,0.321852143 1.83773286,0.597934286 1.65471857,0.839516429" id="Fill-12" fill="#0971AA" mask="url(#mask-4)"></path>
                </g>
            </g>
        </g>
    </g>
</svg>