<?xml version="1.0" encoding="UTF-8"?>
<svg width="24px" height="21px" viewBox="0 0 24 21" version="1.1" xmlns="http://www.w3.org/2000/svg" xmlns:xlink="http://www.w3.org/1999/xlink">
    <!-- Generator: Sketch 53.2 (72643) - https://sketchapp.com -->
    <title>Group 15</title>
    <desc>Created with Sketch.</desc>
    <defs>
        <polygon id="path-1" points="0.0554057143 0.0655714286 9.19366286 0.0655714286 9.19366286 3.40409143 0.0554057143 3.40409143"></polygon>
        <polygon id="path-3" points="0.0655583599 0.0391885714 23.2450286 0.0391885714 23.2450286 12.5609566 0.0655583599 12.5609566"></polygon>
    </defs>
    <g id="Page-1" stroke="none" stroke-width="1" fill="none" fill-rule="evenodd">
        <g id="globeLogo" transform="translate(-1.000000, -2.000000)">
            <g id="Group-15" transform="translate(1.000000, 2.000000)">
                <path d="M15.64356,4.24601143 C11.6816743,3.44989714 6.37818857,3.91575429 3.23624571,7.14538286 C1.90278857,8.51595429 0.88116,9.99906857 0.599931429,12.0936686 C0.502302857,12.82104 1.71428571e-05,12.0138686 1.71428571e-05,10.6512686 C1.71428571e-05,10.1046686 0.461417143,8.80155429 0.754645714,8.11489714 C1.88744571,5.46212571 6.32573143,2.00861143 15.64356,4.24601143" id="Fill-1" fill="#FDF9FB"></path>
                <path d="M15.1317857,20.1553029 C16.1865,19.9710171 16.3921286,19.0338171 15.9292714,18.7458171 C15.7061571,18.6068743 15.4663286,18.64716 15.2535,18.6690171 C6.61315714,19.5576171 1.8261,16.1479029 0.7401,12.8491029 C0.621471429,12.4886743 0.195642857,11.1020743 0.0206142857,10.3682743 C-0.193328571,16.5760457 6.55487143,21.6540171 15.1317857,20.1553029" id="Fill-3" fill="#FDF9FB"></path>
                <path d="M13.7463771,2.26554 C10.8668914,1.66665429 1.44054857,3.01716857 0.433062857,7.73659714 C0.29172,8.21059714 0.214405714,8.69034 0.201034286,9.17008286 C0.224005714,8.82851143 0.241834286,8.56314 0.259748571,8.33779714 C0.308948571,7.89294 0.372891429,7.39022571 0.453462857,6.94948286 C0.47472,6.84148286 0.498634286,6.72439714 0.525462857,6.59445429 L0.525805714,6.59334 L0.634834286,6.14925429 L0.637577143,6.13871143 L0.638262857,6.13614 C0.652062857,6.08436857 0.666634286,6.03294 0.682062857,5.98142571 C0.85812,5.39016857 1.16677714,4.82736857 1.51563429,4.24579714 C2.01449143,3.41394 5.64560571,0.522111429 13.7463771,2.26554" id="Fill-5" fill="#FDF9FB"></path>
                <path d="M0.518168571,6.47323714 C0.418568571,7.02626571 0.355482857,7.37726571 0.311682857,7.68823714 C0.289654286,7.85640857 0.270625714,8.02329429 0.25494,8.18349429 C0.233511429,8.42666571 0.17154,8.69898 0.201111429,9.07235143 C0.82974,16.9902086 13.80054,18.6864943 21.2618829,15.6927514 C22.3940829,15.2384657 22.2253971,13.7615229 21.5715686,13.6458086 C21.38334,13.6124657 21.2101971,13.6943229 21.0663686,13.74738 C11.1981686,17.3930657 0.102282857,14.4670371 0.45234,7.66346571 C0.48054,7.11618 0.48594,6.56640857 0.624968571,6.02349429 L0.518168571,6.47323714 Z" id="Fill-7" fill="#FDF9FB"></path>
                <g id="Group-11" transform="translate(1.628571, 0.020143)">
                    <mask id="mask-2" fill="white">
                        <use xlink:href="#path-1"></use>
                    </mask>
                    <g id="Clip-10"></g>
                    <path d="M0.0554057143,3.40409143 C0.307748571,3.01126286 0.671434286,2.50580571 0.946662857,2.12840571 C1.14063429,1.88909143 1.30734857,1.68886286 1.49523429,1.49274857 C3.68189143,-0.789822857 7.42529143,0.213291429 9.19366286,0.783291429 C6.96114857,0.500348571 2.84214857,-0.222822857 0.0554057143,3.40409143" id="Fill-9" fill="#FDF9FB" mask="url(#mask-2)"></path>
                </g>
                <g id="Group-14" transform="translate(0.685714, 1.477286)">
                    <mask id="mask-4" fill="white">
                        <use xlink:href="#path-3"></use>
                    </mask>
                    <g id="Clip-13"></g>
                    <path d="M1.72666286,0.876017143 C1.49052,1.21038857 1.18940571,1.64564571 0.952748571,2.01516 C0.858205714,2.17347429 0.761605714,2.34087429 0.668948571,2.50793143 C-0.721508571,5.22387429 0.292748571,8.30838857 3.69534857,10.4107886 C8.47897714,13.3667314 16.17072,13.2619029 20.8754914,10.1767029 C21.7790057,9.58416 22.50672,8.92476 23.0588057,8.22516 C23.5980343,7.33707429 22.83732,6.23676 22.4112343,6.25570286 C22.3032343,6.26058857 22.1652343,6.33790286 22.0870629,6.41247429 C21.5832343,7.05087429 20.9194629,7.65241714 20.0949771,8.19301714 C15.8026629,11.0077886 8.78497714,11.10336 4.42074857,8.40653143 C0.820577143,6.18181714 0.151148571,2.75204571 2.43620571,0.0391885714 L2.41332,0.0640457143 C2.16800571,0.335845714 1.91763429,0.623931429 1.72666286,0.876017143" id="Fill-12" fill="#FDF9FB" mask="url(#mask-4)"></path>
                </g>
            </g>
        </g>
    </g>
</svg>